<?xml version="1.0" encoding="utf-8" standalone="no"?>
<!DOCTYPE svg PUBLIC "-//W3C//DTD SVG 1.1//EN"
  "http://www.w3.org/Graphics/SVG/1.1/DTD/svg11.dtd">
<svg xmlns:xlink="http://www.w3.org/1999/xlink" width="648pt" height="432pt" viewBox="0 0 648 432" xmlns="http://www.w3.org/2000/svg" version="1.1">
 <metadata>
  <rdf:RDF xmlns:dc="http://purl.org/dc/elements/1.1/" xmlns:cc="http://creativecommons.org/ns#" xmlns:rdf="http://www.w3.org/1999/02/22-rdf-syntax-ns#">
   <cc:Work>
    <dc:type rdf:resource="http://purl.org/dc/dcmitype/StillImage"/>
    <dc:date>2026-09-22T10:39:45.945957</dc:date>
    <dc:format>image/svg+xml</dc:format>
    <dc:creator>
     <cc:Agent>
      <dc:title>Matplotlib v3.11.1, https://matplotlib.org/</dc:title>
     </cc:Agent>
    </dc:creator>
   </cc:Work>
  </rdf:RDF>
 </metadata>
 <defs>
  <style type="text/css">*{stroke-linejoin: round; stroke-linecap: butt}</style>
 </defs>
 <g id="figure_1">
  <g id="patch_1">
   <path d="M 0 432 
L 648 432 
L 648 0 
L 0 0 
z
" style="fill: #ffffff"/>
  </g>
  <g id="axes_1">
   <g id="patch_2">
    <path d="M 55.642813 387.957187 
L 637.2 387.957187 
L 637.2 30.475781 
L 55.642813 30.475781 
z
" style="fill: #ffffff"/>
   </g>
   <g id="matplotlib.axis_1">
    <g id="xtick_1">
     <g id="line2d_1">
      <path d="M 55.642813 387.957187 
L 55.642813 30.475781 
" clip-path="url(#pd52331610e)" style="fill: none; stroke: #b0b0b0; stroke-width: 0.8; stroke-linecap: square"/>
     </g>
     <g id="line2d_2">
      <defs>
       <path id="m5ca0635ddb" d="M 0 0 
L 0 3.5 
" style="stroke: #000000; stroke-width: 0.8"/>
      </defs>
      <g>
       <use xlink:href="#m5ca0635ddb" x="55.642813" y="387.957187" style="stroke: #000000; stroke-width: 0.8"/>
      </g>
     </g>
     <g id="text_1">
      <!-- 1500 -->
      <g transform="translate(42.917813 402.554844) scale(0.1 -0.1)">
       <defs>
        <path id="DejaVuSans-14" d="M 794 531 
L 1825 531 
L 1825 4091 
L 703 3866 
L 703 4441 
L 1819 4666 
L 2450 4666 
L 2450 531 
L 3481 531 
L 3481 0 
L 794 0 
L 794 531 
z
" transform="scale(0.015625)"/>
        <path id="DejaVuSans-18" d="M 691 4666 
L 3169 4666 
L 3169 4134 
L 1269 4134 
L 1269 2991 
Q 1406 3038 1543 3061 
Q 1681 3084 1819 3084 
Q 2600 3084 3056 2656 
Q 3513 2228 3513 1497 
Q 3513 744 3044 326 
Q 2575 -91 1722 -91 
Q 1428 -91 1123 -41 
Q 819 9 494 109 
L 494 744 
Q 775 591 1075 516 
Q 1375 441 1709 441 
Q 2250 441 2565 725 
Q 2881 1009 2881 1497 
Q 2881 1984 2565 2268 
Q 2250 2553 1709 2553 
Q 1456 2553 1204 2497 
Q 953 2441 691 2322 
L 691 4666 
z
" transform="scale(0.015625)"/>
        <path id="DejaVuSans-13" d="M 2034 4250 
Q 1547 4250 1301 3770 
Q 1056 3291 1056 2328 
Q 1056 1369 1301 889 
Q 1547 409 2034 409 
Q 2525 409 2770 889 
Q 3016 1369 3016 2328 
Q 3016 3291 2770 3770 
Q 2525 4250 2034 4250 
z
M 2034 4750 
Q 2819 4750 3233 4129 
Q 3647 3509 3647 2328 
Q 3647 1150 3233 529 
Q 2819 -91 2034 -91 
Q 1250 -91 836 529 
Q 422 1150 422 2328 
Q 422 3509 836 4129 
Q 1250 4750 2034 4750 
z
" transform="scale(0.015625)"/>
       </defs>
       <use xlink:href="#DejaVuSans-14"/>
       <use xlink:href="#DejaVuSans-18" transform="translate(63.625 0)"/>
       <use xlink:href="#DejaVuSans-13" transform="translate(127.25 0)"/>
       <use xlink:href="#DejaVuSans-13" transform="translate(190.875 0)"/>
      </g>
     </g>
    </g>
    <g id="xtick_2">
     <g id="line2d_3">
      <path d="M 148.691963 387.957187 
L 148.691963 30.475781 
" clip-path="url(#pd52331610e)" style="fill: none; stroke: #b0b0b0; stroke-width: 0.8; stroke-linecap: square"/>
     </g>
     <g id="line2d_4">
      <g>
       <use xlink:href="#m5ca0635ddb" x="148.691963" y="387.957187" style="stroke: #000000; stroke-width: 0.8"/>
      </g>
     </g>
     <g id="text_2">
      <!-- 1520 -->
      <g transform="translate(135.966963 402.554844) scale(0.1 -0.1)">
       <defs>
        <path id="DejaVuSans-15" d="M 1228 531 
L 3431 531 
L 3431 0 
L 469 0 
L 469 531 
Q 828 903 1448 1529 
Q 2069 2156 2228 2338 
Q 2531 2678 2651 2914 
Q 2772 3150 2772 3378 
Q 2772 3750 2511 3984 
Q 2250 4219 1831 4219 
Q 1534 4219 1204 4116 
Q 875 4013 500 3803 
L 500 4441 
Q 881 4594 1212 4672 
Q 1544 4750 1819 4750 
Q 2544 4750 2975 4387 
Q 3406 4025 3406 3419 
Q 3406 3131 3298 2873 
Q 3191 2616 2906 2266 
Q 2828 2175 2409 1742 
Q 1991 1309 1228 531 
z
" transform="scale(0.015625)"/>
       </defs>
       <use xlink:href="#DejaVuSans-14"/>
       <use xlink:href="#DejaVuSans-18" transform="translate(63.625 0)"/>
       <use xlink:href="#DejaVuSans-15" transform="translate(127.25 0)"/>
       <use xlink:href="#DejaVuSans-13" transform="translate(190.875 0)"/>
      </g>
     </g>
    </g>
    <g id="xtick_3">
     <g id="line2d_5">
      <path d="M 241.741113 387.957187 
L 241.741113 30.475781 
" clip-path="url(#pd52331610e)" style="fill: none; stroke: #b0b0b0; stroke-width: 0.8; stroke-linecap: square"/>
     </g>
     <g id="line2d_6">
      <g>
       <use xlink:href="#m5ca0635ddb" x="241.741113" y="387.957187" style="stroke: #000000; stroke-width: 0.8"/>
      </g>
     </g>
     <g id="text_3">
      <!-- 1540 -->
      <g transform="translate(229.016113 402.554844) scale(0.1 -0.1)">
       <defs>
        <path id="DejaVuSans-17" d="M 2419 4116 
L 825 1625 
L 2419 1625 
L 2419 4116 
z
M 2253 4666 
L 3047 4666 
L 3047 1625 
L 3713 1625 
L 3713 1100 
L 3047 1100 
L 3047 0 
L 2419 0 
L 2419 1100 
L 313 1100 
L 313 1709 
L 2253 4666 
z
" transform="scale(0.015625)"/>
       </defs>
       <use xlink:href="#DejaVuSans-14"/>
       <use xlink:href="#DejaVuSans-18" transform="translate(63.625 0)"/>
       <use xlink:href="#DejaVuSans-17" transform="translate(127.25 0)"/>
       <use xlink:href="#DejaVuSans-13" transform="translate(190.875 0)"/>
      </g>
     </g>
    </g>
    <g id="xtick_4">
     <g id="line2d_7">
      <path d="M 334.790263 387.957187 
L 334.790263 30.475781 
" clip-path="url(#pd52331610e)" style="fill: none; stroke: #b0b0b0; stroke-width: 0.8; stroke-linecap: square"/>
     </g>
     <g id="line2d_8">
      <g>
       <use xlink:href="#m5ca0635ddb" x="334.790263" y="387.957187" style="stroke: #000000; stroke-width: 0.8"/>
      </g>
     </g>
     <g id="text_4">
      <!-- 1560 -->
      <g transform="translate(322.065263 402.554844) scale(0.1 -0.1)">
       <defs>
        <path id="DejaVuSans-19" d="M 2113 2584 
Q 1688 2584 1439 2293 
Q 1191 2003 1191 1497 
Q 1191 994 1439 701 
Q 1688 409 2113 409 
Q 2538 409 2786 701 
Q 3034 994 3034 1497 
Q 3034 2003 2786 2293 
Q 2538 2584 2113 2584 
z
M 3366 4563 
L 3366 3988 
Q 3128 4100 2886 4159 
Q 2644 4219 2406 4219 
Q 1781 4219 1451 3797 
Q 1122 3375 1075 2522 
Q 1259 2794 1537 2939 
Q 1816 3084 2150 3084 
Q 2853 3084 3261 2657 
Q 3669 2231 3669 1497 
Q 3669 778 3244 343 
Q 2819 -91 2113 -91 
Q 1303 -91 875 529 
Q 447 1150 447 2328 
Q 447 3434 972 4092 
Q 1497 4750 2381 4750 
Q 2619 4750 2861 4703 
Q 3103 4656 3366 4563 
z
" transform="scale(0.015625)"/>
       </defs>
       <use xlink:href="#DejaVuSans-14"/>
       <use xlink:href="#DejaVuSans-18" transform="translate(63.625 0)"/>
       <use xlink:href="#DejaVuSans-19" transform="translate(127.25 0)"/>
       <use xlink:href="#DejaVuSans-13" transform="translate(190.875 0)"/>
      </g>
     </g>
    </g>
    <g id="xtick_5">
     <g id="line2d_9">
      <path d="M 427.839413 387.957187 
L 427.839413 30.475781 
" clip-path="url(#pd52331610e)" style="fill: none; stroke: #b0b0b0; stroke-width: 0.8; stroke-linecap: square"/>
     </g>
     <g id="line2d_10">
      <g>
       <use xlink:href="#m5ca0635ddb" x="427.839413" y="387.957187" style="stroke: #000000; stroke-width: 0.8"/>
      </g>
     </g>
     <g id="text_5">
      <!-- 1580 -->
      <g transform="translate(415.114413 402.554844) scale(0.1 -0.1)">
       <defs>
        <path id="DejaVuSans-1b" d="M 2034 2216 
Q 1584 2216 1326 1975 
Q 1069 1734 1069 1313 
Q 1069 891 1326 650 
Q 1584 409 2034 409 
Q 2484 409 2743 651 
Q 3003 894 3003 1313 
Q 3003 1734 2745 1975 
Q 2488 2216 2034 2216 
z
M 1403 2484 
Q 997 2584 770 2862 
Q 544 3141 544 3541 
Q 544 4100 942 4425 
Q 1341 4750 2034 4750 
Q 2731 4750 3128 4425 
Q 3525 4100 3525 3541 
Q 3525 3141 3298 2862 
Q 3072 2584 2669 2484 
Q 3125 2378 3379 2068 
Q 3634 1759 3634 1313 
Q 3634 634 3220 271 
Q 2806 -91 2034 -91 
Q 1263 -91 848 271 
Q 434 634 434 1313 
Q 434 1759 690 2068 
Q 947 2378 1403 2484 
z
M 1172 3481 
Q 1172 3119 1398 2916 
Q 1625 2713 2034 2713 
Q 2441 2713 2670 2916 
Q 2900 3119 2900 3481 
Q 2900 3844 2670 4047 
Q 2441 4250 2034 4250 
Q 1625 4250 1398 4047 
Q 1172 3844 1172 3481 
z
" transform="scale(0.015625)"/>
       </defs>
       <use xlink:href="#DejaVuSans-14"/>
       <use xlink:href="#DejaVuSans-18" transform="translate(63.625 0)"/>
       <use xlink:href="#DejaVuSans-1b" transform="translate(127.25 0)"/>
       <use xlink:href="#DejaVuSans-13" transform="translate(190.875 0)"/>
      </g>
     </g>
    </g>
    <g id="xtick_6">
     <g id="line2d_11">
      <path d="M 520.888563 387.957187 
L 520.888563 30.475781 
" clip-path="url(#pd52331610e)" style="fill: none; stroke: #b0b0b0; stroke-width: 0.8; stroke-linecap: square"/>
     </g>
     <g id="line2d_12">
      <g>
       <use xlink:href="#m5ca0635ddb" x="520.888563" y="387.957187" style="stroke: #000000; stroke-width: 0.8"/>
      </g>
     </g>
     <g id="text_6">
      <!-- 1600 -->
      <g transform="translate(508.163563 402.554844) scale(0.1 -0.1)">
       <use xlink:href="#DejaVuSans-14"/>
       <use xlink:href="#DejaVuSans-19" transform="translate(63.625 0)"/>
       <use xlink:href="#DejaVuSans-13" transform="translate(127.25 0)"/>
       <use xlink:href="#DejaVuSans-13" transform="translate(190.875 0)"/>
      </g>
     </g>
    </g>
    <g id="xtick_7">
     <g id="line2d_13">
      <path d="M 613.937713 387.957187 
L 613.937713 30.475781 
" clip-path="url(#pd52331610e)" style="fill: none; stroke: #b0b0b0; stroke-width: 0.8; stroke-linecap: square"/>
     </g>
     <g id="line2d_14">
      <g>
       <use xlink:href="#m5ca0635ddb" x="613.937713" y="387.957187" style="stroke: #000000; stroke-width: 0.8"/>
      </g>
     </g>
     <g id="text_7">
      <!-- 1620 -->
      <g transform="translate(601.212713 402.554844) scale(0.1 -0.1)">
       <use xlink:href="#DejaVuSans-14"/>
       <use xlink:href="#DejaVuSans-19" transform="translate(63.625 0)"/>
       <use xlink:href="#DejaVuSans-15" transform="translate(127.25 0)"/>
       <use xlink:href="#DejaVuSans-13" transform="translate(190.875 0)"/>
      </g>
     </g>
    </g>
    <g id="text_8">
     <!-- Wavelength (nm) -->
     <g transform="translate(294.591719 418.075312) scale(0.12 -0.12)">
      <defs>
       <path id="DejaVuSans-3a" d="M 213 4666 
L 850 4666 
L 1831 722 
L 2809 4666 
L 3519 4666 
L 4500 722 
L 5478 4666 
L 6119 4666 
L 4947 0 
L 4153 0 
L 3169 4050 
L 2175 0 
L 1381 0 
L 213 4666 
z
" transform="scale(0.015625)"/>
       <path id="DejaVuSans-44" d="M 2194 1759 
Q 1497 1759 1228 1600 
Q 959 1441 959 1056 
Q 959 750 1161 570 
Q 1363 391 1709 391 
Q 2188 391 2477 730 
Q 2766 1069 2766 1631 
L 2766 1759 
L 2194 1759 
z
M 3341 1997 
L 3341 0 
L 2766 0 
L 2766 531 
Q 2569 213 2275 61 
Q 1981 -91 1556 -91 
Q 1019 -91 701 211 
Q 384 513 384 1019 
Q 384 1609 779 1909 
Q 1175 2209 1959 2209 
L 2766 2209 
L 2766 2266 
Q 2766 2663 2505 2880 
Q 2244 3097 1772 3097 
Q 1472 3097 1187 3025 
Q 903 2953 641 2809 
L 641 3341 
Q 956 3463 1253 3523 
Q 1550 3584 1831 3584 
Q 2591 3584 2966 3190 
Q 3341 2797 3341 1997 
z
" transform="scale(0.015625)"/>
       <path id="DejaVuSans-59" d="M 191 3500 
L 800 3500 
L 1894 563 
L 2988 3500 
L 3597 3500 
L 2284 0 
L 1503 0 
L 191 3500 
z
" transform="scale(0.015625)"/>
       <path id="DejaVuSans-48" d="M 3597 1894 
L 3597 1613 
L 953 1613 
Q 991 1019 1311 708 
Q 1631 397 2203 397 
Q 2534 397 2845 478 
Q 3156 559 3463 722 
L 3463 178 
Q 3153 47 2828 -22 
Q 2503 -91 2169 -91 
Q 1331 -91 842 396 
Q 353 884 353 1716 
Q 353 2575 817 3079 
Q 1281 3584 2069 3584 
Q 2775 3584 3186 3129 
Q 3597 2675 3597 1894 
z
M 3022 2063 
Q 3016 2534 2758 2815 
Q 2500 3097 2075 3097 
Q 1594 3097 1305 2825 
Q 1016 2553 972 2059 
L 3022 2063 
z
" transform="scale(0.015625)"/>
       <path id="DejaVuSans-4f" d="M 603 4863 
L 1178 4863 
L 1178 0 
L 603 0 
L 603 4863 
z
" transform="scale(0.015625)"/>
       <path id="DejaVuSans-51" d="M 3513 2113 
L 3513 0 
L 2938 0 
L 2938 2094 
Q 2938 2591 2744 2837 
Q 2550 3084 2163 3084 
Q 1697 3084 1428 2787 
Q 1159 2491 1159 1978 
L 1159 0 
L 581 0 
L 581 3500 
L 1159 3500 
L 1159 2956 
Q 1366 3272 1645 3428 
Q 1925 3584 2291 3584 
Q 2894 3584 3203 3211 
Q 3513 2838 3513 2113 
z
" transform="scale(0.015625)"/>
       <path id="DejaVuSans-4a" d="M 2906 1791 
Q 2906 2416 2648 2759 
Q 2391 3103 1925 3103 
Q 1463 3103 1205 2759 
Q 947 2416 947 1791 
Q 947 1169 1205 825 
Q 1463 481 1925 481 
Q 2391 481 2648 825 
Q 2906 1169 2906 1791 
z
M 3481 434 
Q 3481 -459 3084 -895 
Q 2688 -1331 1869 -1331 
Q 1566 -1331 1297 -1286 
Q 1028 -1241 775 -1147 
L 775 -588 
Q 1028 -725 1275 -790 
Q 1522 -856 1778 -856 
Q 2344 -856 2625 -561 
Q 2906 -266 2906 331 
L 2906 616 
Q 2728 306 2450 153 
Q 2172 0 1784 0 
Q 1141 0 747 490 
Q 353 981 353 1791 
Q 353 2603 747 3093 
Q 1141 3584 1784 3584 
Q 2172 3584 2450 3431 
Q 2728 3278 2906 2969 
L 2906 3500 
L 3481 3500 
L 3481 434 
z
" transform="scale(0.015625)"/>
       <path id="DejaVuSans-57" d="M 1172 4494 
L 1172 3500 
L 2356 3500 
L 2356 3053 
L 1172 3053 
L 1172 1153 
Q 1172 725 1289 603 
Q 1406 481 1766 481 
L 2356 481 
L 2356 0 
L 1766 0 
Q 1100 0 847 248 
Q 594 497 594 1153 
L 594 3053 
L 172 3053 
L 172 3500 
L 594 3500 
L 594 4494 
L 1172 4494 
z
" transform="scale(0.015625)"/>
       <path id="DejaVuSans-4b" d="M 3513 2113 
L 3513 0 
L 2938 0 
L 2938 2094 
Q 2938 2591 2744 2837 
Q 2550 3084 2163 3084 
Q 1697 3084 1428 2787 
Q 1159 2491 1159 1978 
L 1159 0 
L 581 0 
L 581 4863 
L 1159 4863 
L 1159 2956 
Q 1366 3272 1645 3428 
Q 1925 3584 2291 3584 
Q 2894 3584 3203 3211 
Q 3513 2838 3513 2113 
z
" transform="scale(0.015625)"/>
       <path id="DejaVuSans-3" transform="scale(0.015625)"/>
       <path id="DejaVuSans-b" d="M 1984 4856 
Q 1566 4138 1362 3434 
Q 1159 2731 1159 2009 
Q 1159 1288 1364 580 
Q 1569 -128 1984 -844 
L 1484 -844 
Q 1016 -109 783 600 
Q 550 1309 550 2009 
Q 550 2706 781 3412 
Q 1013 4119 1484 4856 
L 1984 4856 
z
" transform="scale(0.015625)"/>
       <path id="DejaVuSans-50" d="M 3328 2828 
Q 3544 3216 3844 3400 
Q 4144 3584 4550 3584 
Q 5097 3584 5394 3201 
Q 5691 2819 5691 2113 
L 5691 0 
L 5113 0 
L 5113 2094 
Q 5113 2597 4934 2840 
Q 4756 3084 4391 3084 
Q 3944 3084 3684 2787 
Q 3425 2491 3425 1978 
L 3425 0 
L 2847 0 
L 2847 2094 
Q 2847 2600 2669 2842 
Q 2491 3084 2119 3084 
Q 1678 3084 1418 2786 
Q 1159 2488 1159 1978 
L 1159 0 
L 581 0 
L 581 3500 
L 1159 3500 
L 1159 2956 
Q 1356 3278 1631 3431 
Q 1906 3584 2284 3584 
Q 2666 3584 2933 3390 
Q 3200 3197 3328 2828 
z
" transform="scale(0.015625)"/>
       <path id="DejaVuSans-c" d="M 513 4856 
L 1013 4856 
Q 1481 4119 1714 3412 
Q 1947 2706 1947 2009 
Q 1947 1309 1714 600 
Q 1481 -109 1013 -844 
L 513 -844 
Q 928 -128 1133 580 
Q 1338 1288 1338 2009 
Q 1338 2731 1133 3434 
Q 928 4138 513 4856 
z
" transform="scale(0.015625)"/>
      </defs>
      <use xlink:href="#DejaVuSans-3a"/>
      <use xlink:href="#DejaVuSans-44" transform="translate(92.484375 0)"/>
      <use xlink:href="#DejaVuSans-59" transform="translate(153.765625 0)"/>
      <use xlink:href="#DejaVuSans-48" transform="translate(212.953125 0)"/>
      <use xlink:href="#DejaVuSans-4f" transform="translate(274.484375 0)"/>
      <use xlink:href="#DejaVuSans-48" transform="translate(302.265625 0)"/>
      <use xlink:href="#DejaVuSans-51" transform="translate(363.796875 0)"/>
      <use xlink:href="#DejaVuSans-4a" transform="translate(427.171875 0)"/>
      <use xlink:href="#DejaVuSans-57" transform="translate(490.65625 0)"/>
      <use xlink:href="#DejaVuSans-4b" transform="translate(529.859375 0)"/>
      <use xlink:href="#DejaVuSans-3" transform="translate(593.234375 0)"/>
      <use xlink:href="#DejaVuSans-b" transform="translate(625.015625 0)"/>
      <use xlink:href="#DejaVuSans-51" transform="translate(664.03125 0)"/>
      <use xlink:href="#DejaVuSans-50" transform="translate(727.40625 0)"/>
      <use xlink:href="#DejaVuSans-c" transform="translate(824.8125 0)"/>
     </g>
    </g>
   </g>
   <g id="matplotlib.axis_2">
    <g id="ytick_1">
     <g id="line2d_15">
      <path d="M 55.642813 342.952352 
L 637.2 342.952352 
" clip-path="url(#pd52331610e)" style="fill: none; stroke: #b0b0b0; stroke-width: 0.8; stroke-linecap: square"/>
     </g>
     <g id="line2d_16">
      <defs>
       <path id="m3575cd143d" d="M 0 0 
L -3.5 0 
" style="stroke: #000000; stroke-width: 0.8"/>
      </defs>
      <g>
       <use xlink:href="#m3575cd143d" x="55.642813" y="342.952352" style="stroke: #000000; stroke-width: 0.8"/>
      </g>
     </g>
     <g id="text_9">
      <!-- −80 -->
      <g transform="translate(27.538125 346.75118) scale(0.1 -0.1)">
       <defs>
        <path id="DejaVuSans-c9c" d="M 678 2272 
L 4684 2272 
L 4684 1741 
L 678 1741 
L 678 2272 
z
" transform="scale(0.015625)"/>
       </defs>
       <use xlink:href="#DejaVuSans-c9c"/>
       <use xlink:href="#DejaVuSans-1b" transform="translate(83.796875 0)"/>
       <use xlink:href="#DejaVuSans-13" transform="translate(147.421875 0)"/>
      </g>
     </g>
    </g>
    <g id="ytick_2">
     <g id="line2d_17">
      <path d="M 55.642813 268.988158 
L 637.2 268.988158 
" clip-path="url(#pd52331610e)" style="fill: none; stroke: #b0b0b0; stroke-width: 0.8; stroke-linecap: square"/>
     </g>
     <g id="line2d_18">
      <g>
       <use xlink:href="#m3575cd143d" x="55.642813" y="268.988158" style="stroke: #000000; stroke-width: 0.8"/>
      </g>
     </g>
     <g id="text_10">
      <!-- −60 -->
      <g transform="translate(27.538125 272.786986) scale(0.1 -0.1)">
       <use xlink:href="#DejaVuSans-c9c"/>
       <use xlink:href="#DejaVuSans-19" transform="translate(83.796875 0)"/>
       <use xlink:href="#DejaVuSans-13" transform="translate(147.421875 0)"/>
      </g>
     </g>
    </g>
    <g id="ytick_3">
     <g id="line2d_19">
      <path d="M 55.642813 195.023963 
L 637.2 195.023963 
" clip-path="url(#pd52331610e)" style="fill: none; stroke: #b0b0b0; stroke-width: 0.8; stroke-linecap: square"/>
     </g>
     <g id="line2d_20">
      <g>
       <use xlink:href="#m3575cd143d" x="55.642813" y="195.023963" style="stroke: #000000; stroke-width: 0.8"/>
      </g>
     </g>
     <g id="text_11">
      <!-- −40 -->
      <g transform="translate(27.538125 198.822791) scale(0.1 -0.1)">
       <use xlink:href="#DejaVuSans-c9c"/>
       <use xlink:href="#DejaVuSans-17" transform="translate(83.796875 0)"/>
       <use xlink:href="#DejaVuSans-13" transform="translate(147.421875 0)"/>
      </g>
     </g>
    </g>
    <g id="ytick_4">
     <g id="line2d_21">
      <path d="M 55.642813 121.059768 
L 637.2 121.059768 
" clip-path="url(#pd52331610e)" style="fill: none; stroke: #b0b0b0; stroke-width: 0.8; stroke-linecap: square"/>
     </g>
     <g id="line2d_22">
      <g>
       <use xlink:href="#m3575cd143d" x="55.642813" y="121.059768" style="stroke: #000000; stroke-width: 0.8"/>
      </g>
     </g>
     <g id="text_12">
      <!-- −20 -->
      <g transform="translate(27.538125 124.858597) scale(0.1 -0.1)">
       <use xlink:href="#DejaVuSans-c9c"/>
       <use xlink:href="#DejaVuSans-15" transform="translate(83.796875 0)"/>
       <use xlink:href="#DejaVuSans-13" transform="translate(147.421875 0)"/>
      </g>
     </g>
    </g>
    <g id="ytick_5">
     <g id="line2d_23">
      <path d="M 55.642813 47.095574 
L 637.2 47.095574 
" clip-path="url(#pd52331610e)" style="fill: none; stroke: #b0b0b0; stroke-width: 0.8; stroke-linecap: square"/>
     </g>
     <g id="line2d_24">
      <g>
       <use xlink:href="#m3575cd143d" x="55.642813" y="47.095574" style="stroke: #000000; stroke-width: 0.8"/>
      </g>
     </g>
     <g id="text_13">
      <!-- 0 -->
      <g transform="translate(42.280313 50.894402) scale(0.1 -0.1)">
       <use xlink:href="#DejaVuSans-13"/>
      </g>
     </g>
    </g>
    <g id="text_14">
     <!-- Relative Intensity (dB/nm) -->
     <g transform="translate(20.655313 287.618672) rotate(-90) scale(0.12 -0.12)">
      <defs>
       <path id="DejaVuSans-35" d="M 2841 2188 
Q 3044 2119 3236 1894 
Q 3428 1669 3622 1275 
L 4263 0 
L 3584 0 
L 2988 1197 
Q 2756 1666 2539 1819 
Q 2322 1972 1947 1972 
L 1259 1972 
L 1259 0 
L 628 0 
L 628 4666 
L 2053 4666 
Q 2853 4666 3247 4331 
Q 3641 3997 3641 3322 
Q 3641 2881 3436 2590 
Q 3231 2300 2841 2188 
z
M 1259 4147 
L 1259 2491 
L 2053 2491 
Q 2509 2491 2742 2702 
Q 2975 2913 2975 3322 
Q 2975 3731 2742 3939 
Q 2509 4147 2053 4147 
L 1259 4147 
z
" transform="scale(0.015625)"/>
       <path id="DejaVuSans-4c" d="M 603 3500 
L 1178 3500 
L 1178 0 
L 603 0 
L 603 3500 
z
M 603 4863 
L 1178 4863 
L 1178 4134 
L 603 4134 
L 603 4863 
z
" transform="scale(0.015625)"/>
       <path id="DejaVuSans-2c" d="M 628 4666 
L 1259 4666 
L 1259 0 
L 628 0 
L 628 4666 
z
" transform="scale(0.015625)"/>
       <path id="DejaVuSans-56" d="M 2834 3397 
L 2834 2853 
Q 2591 2978 2328 3040 
Q 2066 3103 1784 3103 
Q 1356 3103 1142 2972 
Q 928 2841 928 2578 
Q 928 2378 1081 2264 
Q 1234 2150 1697 2047 
L 1894 2003 
Q 2506 1872 2764 1633 
Q 3022 1394 3022 966 
Q 3022 478 2636 193 
Q 2250 -91 1575 -91 
Q 1294 -91 989 -36 
Q 684 19 347 128 
L 347 722 
Q 666 556 975 473 
Q 1284 391 1588 391 
Q 1994 391 2212 530 
Q 2431 669 2431 922 
Q 2431 1156 2273 1281 
Q 2116 1406 1581 1522 
L 1381 1569 
Q 847 1681 609 1914 
Q 372 2147 372 2553 
Q 372 3047 722 3315 
Q 1072 3584 1716 3584 
Q 2034 3584 2315 3537 
Q 2597 3491 2834 3397 
z
" transform="scale(0.015625)"/>
       <path id="DejaVuSans-5c" d="M 2059 -325 
Q 1816 -950 1584 -1140 
Q 1353 -1331 966 -1331 
L 506 -1331 
L 506 -850 
L 844 -850 
Q 1081 -850 1212 -737 
Q 1344 -625 1503 -206 
L 1606 56 
L 191 3500 
L 800 3500 
L 1894 763 
L 2988 3500 
L 3597 3500 
L 2059 -325 
z
" transform="scale(0.015625)"/>
       <path id="DejaVuSans-47" d="M 2906 2969 
L 2906 4863 
L 3481 4863 
L 3481 0 
L 2906 0 
L 2906 525 
Q 2725 213 2448 61 
Q 2172 -91 1784 -91 
Q 1150 -91 751 415 
Q 353 922 353 1747 
Q 353 2572 751 3078 
Q 1150 3584 1784 3584 
Q 2172 3584 2448 3432 
Q 2725 3281 2906 2969 
z
M 947 1747 
Q 947 1113 1208 752 
Q 1469 391 1925 391 
Q 2381 391 2643 752 
Q 2906 1113 2906 1747 
Q 2906 2381 2643 2742 
Q 2381 3103 1925 3103 
Q 1469 3103 1208 2742 
Q 947 2381 947 1747 
z
" transform="scale(0.015625)"/>
       <path id="DejaVuSans-25" d="M 1259 2228 
L 1259 519 
L 2272 519 
Q 2781 519 3026 730 
Q 3272 941 3272 1375 
Q 3272 1813 3026 2020 
Q 2781 2228 2272 2228 
L 1259 2228 
z
M 1259 4147 
L 1259 2741 
L 2194 2741 
Q 2656 2741 2882 2914 
Q 3109 3088 3109 3444 
Q 3109 3797 2882 3972 
Q 2656 4147 2194 4147 
L 1259 4147 
z
M 628 4666 
L 2241 4666 
Q 2963 4666 3353 4366 
Q 3744 4066 3744 3513 
Q 3744 3084 3544 2831 
Q 3344 2578 2956 2516 
Q 3422 2416 3680 2098 
Q 3938 1781 3938 1306 
Q 3938 681 3513 340 
Q 3088 0 2303 0 
L 628 0 
L 628 4666 
z
" transform="scale(0.015625)"/>
       <path id="DejaVuSans-12" d="M 1625 4666 
L 2156 4666 
L 531 -594 
L 0 -594 
L 1625 4666 
z
" transform="scale(0.015625)"/>
      </defs>
      <use xlink:href="#DejaVuSans-35"/>
      <use xlink:href="#DejaVuSans-48" transform="translate(65 0)"/>
      <use xlink:href="#DejaVuSans-4f" transform="translate(126.53125 0)"/>
      <use xlink:href="#DejaVuSans-44" transform="translate(154.3125 0)"/>
      <use xlink:href="#DejaVuSans-57" transform="translate(215.59375 0)"/>
      <use xlink:href="#DejaVuSans-4c" transform="translate(254.796875 0)"/>
      <use xlink:href="#DejaVuSans-59" transform="translate(282.578125 0)"/>
      <use xlink:href="#DejaVuSans-48" transform="translate(341.765625 0)"/>
      <use xlink:href="#DejaVuSans-3" transform="translate(403.296875 0)"/>
      <use xlink:href="#DejaVuSans-2c" transform="translate(435.078125 0)"/>
      <use xlink:href="#DejaVuSans-51" transform="translate(464.578125 0)"/>
      <use xlink:href="#DejaVuSans-57" transform="translate(527.953125 0)"/>
      <use xlink:href="#DejaVuSans-48" transform="translate(567.15625 0)"/>
      <use xlink:href="#DejaVuSans-51" transform="translate(628.6875 0)"/>
      <use xlink:href="#DejaVuSans-56" transform="translate(692.0625 0)"/>
      <use xlink:href="#DejaVuSans-4c" transform="translate(744.15625 0)"/>
      <use xlink:href="#DejaVuSans-57" transform="translate(771.9375 0)"/>
      <use xlink:href="#DejaVuSans-5c" transform="translate(811.140625 0)"/>
      <use xlink:href="#DejaVuSans-3" transform="translate(870.328125 0)"/>
      <use xlink:href="#DejaVuSans-b" transform="translate(902.109375 0)"/>
      <use xlink:href="#DejaVuSans-47" transform="translate(941.125 0)"/>
      <use xlink:href="#DejaVuSans-25" transform="translate(1004.609375 0)"/>
      <use xlink:href="#DejaVuSans-12" transform="translate(1073.21875 0)"/>
      <use xlink:href="#DejaVuSans-51" transform="translate(1106.90625 0)"/>
      <use xlink:href="#DejaVuSans-50" transform="translate(1170.28125 0)"/>
      <use xlink:href="#DejaVuSans-c" transform="translate(1267.6875 0)"/>
     </g>
    </g>
   </g>
   <g id="line2d_25">
    <path d="M 649 316.963831 
L 646.952056 320.805568 
L 644.89834 314.924654 
L 642.845739 326.870575 
L 640.79425 336.723727 
L 638.743874 360.53492 
L 636.694609 319.279979 
L 634.646455 348.91497 
L 632.59941 324.825813 
L 630.553474 333.01013 
L 628.508645 322.982114 
L 626.464923 317.414769 
L 624.422307 364.093365 
L 622.380797 336.576596 
L 620.34039 349.169752 
L 618.301086 346.003508 
L 616.262885 349.030321 
L 614.225785 315.564296 
L 612.189786 303.964401 
L 610.154886 320.082799 
L 608.121086 329.88708 
L 606.088383 325.46998 
L 604.056777 343.335713 
L 602.026267 369.627165 
L 599.996852 326.838939 
L 597.968532 358.569914 
L 595.941305 349.19099 
L 593.91517 311.56854 
L 591.890128 333.583766 
L 589.866176 330.571045 
L 587.843314 329.030678 
L 585.821541 320.855043 
L 583.800856 370.406994 
L 581.781258 343.452723 
L 579.762747 321.559042 
L 577.745321 325.134682 
L 575.72898 350.494743 
L 573.713723 338.714263 
L 571.699548 332.741605 
L 569.686456 347.051475 
L 567.674445 338.792737 
L 565.663514 345.945734 
L 563.653662 337.619054 
L 561.644889 350.972151 
L 559.637194 314.763015 
L 557.630575 340.332031 
L 555.625033 325.033639 
L 553.620565 342.997103 
L 551.617172 333.27672 
L 549.614852 357.01071 
L 547.613604 355.958209 
L 545.613428 341.006005 
L 543.614323 338.719186 
L 541.616288 330.425129 
L 539.619322 310.095707 
L 537.623424 322.855479 
L 535.628593 312.640834 
L 533.634829 318.9846 
L 531.64213 331.662594 
L 529.650496 350.786137 
L 527.659926 361.318274 
L 525.670419 357.343528 
L 523.681974 317.80935 
L 521.694591 333.193353 
L 519.708268 318.227281 
L 517.723005 331.245516 
L 515.738801 325.098263 
L 513.755654 325.463673 
L 511.773565 321.305793 
L 507.812554 341.691315 
L 505.833631 338.660297 
L 503.855762 365.409964 
L 501.878946 335.678571 
L 499.903181 329.31368 
L 497.928468 331.36505 
L 495.954805 318.921053 
L 493.982192 358.158075 
L 492.010628 320.968331 
L 490.040111 339.239837 
L 488.070641 327.123044 
L 486.102218 348.65057 
L 484.13484 333.091312 
L 482.168507 320.47238 
L 480.203217 334.098652 
L 478.23897 358.936388 
L 476.275765 337.378395 
L 474.313601 329.408389 
L 472.352478 321.913409 
L 470.392394 325.51485 
L 468.433349 315.218648 
L 466.475342 344.075903 
L 464.518372 343.584324 
L 462.562438 336.846652 
L 460.60754 302.297675 
L 458.653676 333.088519 
L 456.700846 325.277045 
L 452.798285 344.136315 
L 450.848551 340.967942 
L 448.899848 348.648715 
L 446.952175 363.913993 
L 445.005531 308.064889 
L 443.059914 346.8399 
L 441.115325 344.717883 
L 439.171763 305.636738 
L 437.229226 328.339202 
L 435.287713 348.296759 
L 433.347225 313.315521 
L 431.40776 327.852407 
L 429.469318 327.952329 
L 427.531897 339.707876 
L 425.595496 324.849026 
L 423.660116 339.32399 
L 421.725755 324.996174 
L 419.792412 364.667724 
L 417.860087 338.600512 
L 415.928779 316.212014 
L 413.998486 325.348517 
L 412.069209 312.121223 
L 410.140946 324.435567 
L 408.213696 314.704736 
L 406.287459 301.826455 
L 404.362235 293.254992 
L 402.438021 291.824654 
L 400.514818 282.554996 
L 398.592624 269.579443 
L 396.671439 261.821764 
L 394.751262 251.944747 
L 392.832092 245.900774 
L 390.913928 235.284619 
L 388.99677 225.943909 
L 387.080617 217.172788 
L 385.165468 207.846087 
L 381.338179 190.142282 
L 377.514896 171.684165 
L 375.604755 163.130881 
L 371.787471 144.838581 
L 360.359537 91.33048 
L 356.558179 74.355018 
L 354.658987 66.499202 
L 352.760786 59.383109 
L 350.863575 53.436473 
L 348.967353 49.180359 
L 347.07212 47.095574 
L 345.177874 47.48439 
L 343.284615 50.279323 
L 341.392342 55.101343 
L 339.501054 61.438385 
L 337.610751 68.812086 
L 333.833096 85.23564 
L 328.173977 111.571401 
L 309.373828 200.862732 
L 307.499174 210.891098 
L 305.625491 218.662012 
L 303.752778 228.27384 
L 301.881036 236.250318 
L 298.140459 255.030041 
L 296.271623 266.468319 
L 294.403754 275.269488 
L 292.53685 277.204626 
L 290.670913 288.688786 
L 288.80594 311.552316 
L 286.941932 310.092411 
L 283.216804 364.276671 
L 281.355683 312.476729 
L 279.495523 309.806454 
L 277.636323 317.121734 
L 275.778083 329.790601 
L 273.920802 313.304408 
L 272.064479 323.640104 
L 270.209114 329.72818 
L 268.354705 364.61711 
L 266.501251 343.336665 
L 264.648754 334.277568 
L 262.79721 315.557401 
L 260.94662 360.246524 
L 259.096983 344.247854 
L 257.248298 352.442355 
L 255.400565 335.219846 
L 253.553782 324.11406 
L 251.70795 333.071512 
L 249.863066 302.12158 
L 248.019131 350.585328 
L 244.334104 317.210095 
L 242.493011 361.644169 
L 240.652863 315.823085 
L 238.81366 316.82986 
L 236.975401 332.220591 
L 235.138085 337.443806 
L 233.301712 356.465466 
L 231.466281 334.162309 
L 229.631792 367.397017 
L 227.798242 319.836791 
L 225.965633 363.330823 
L 224.133963 323.216256 
L 222.303231 306.503186 
L 220.473437 328.264341 
L 218.644579 312.674889 
L 216.816658 345.353472 
L 214.989672 327.55421 
L 213.163621 346.536744 
L 211.338505 311.250583 
L 209.514321 333.660495 
L 207.69107 322.421971 
L 205.868751 318.880323 
L 204.047363 334.313439 
L 202.226906 313.222228 
L 200.407378 347.726386 
L 198.588779 343.351241 
L 196.771109 316.773181 
L 194.954366 356.030757 
L 193.138551 337.68661 
L 191.323661 339.362535 
L 189.509697 365.842719 
L 187.696658 335.996548 
L 185.884542 369.710566 
L 184.073351 312.968188 
L 182.263081 320.494949 
L 180.453734 334.683831 
L 178.645308 311.447547 
L 176.837803 338.018088 
L 175.031217 334.100052 
L 173.225551 343.327157 
L 171.420803 334.170986 
L 169.616973 313.930451 
L 167.81406 329.317365 
L 166.012063 331.967206 
L 164.210982 350.758878 
L 162.410815 328.399312 
L 160.611563 326.259595 
L 158.813225 343.400444 
L 157.015799 323.287485 
L 155.219286 320.811436 
L 153.423684 324.982046 
L 151.628993 351.717325 
L 149.835212 328.532195 
L 148.04234 315.366293 
L 146.250377 362.749066 
L 144.459322 339.774711 
L 142.669175 338.244068 
L 140.879934 317.779253 
L 139.091599 367.950095 
L 137.304169 314.567596 
L 135.517644 363.247808 
L 133.732022 309.882985 
L 131.947304 329.706923 
L 130.163489 340.775308 
L 128.380575 323.510624 
L 126.598562 335.988326 
L 124.81745 344.599676 
L 123.037238 356.308689 
L 121.257924 326.841588 
L 119.47951 330.137722 
L 117.701992 307.739013 
L 115.925372 309.480553 
L 114.149649 333.507275 
L 112.374821 350.217531 
L 110.600888 314.597633 
L 108.827849 340.576895 
L 107.055704 310.405445 
L 105.284452 335.189974 
L 103.514092 325.832704 
L 101.744624 326.21998 
L 99.976047 339.992184 
L 98.20836 343.242542 
L 96.441563 306.760473 
L 94.675655 325.130441 
L 92.910635 326.986423 
L 91.146503 339.940661 
L 89.383258 320.815824 
L 87.620899 333.213122 
L 85.859425 366.459444 
L 84.098837 316.851758 
L 82.339132 363.007349 
L 80.580312 337.289281 
L 78.822374 314.788229 
L 77.065319 321.259815 
L 75.309145 308.704576 
L 73.553852 337.519593 
L 71.799439 330.044959 
L 70.045907 339.460099 
L 68.293253 323.027741 
L 66.541477 327.570377 
L 64.790579 317.013929 
L 63.040558 362.093872 
L 61.291413 345.738868 
L 59.543144 319.901415 
L 57.79575 308.646202 
L 56.04923 311.999577 
L 54.303584 334.882864 
L 52.558811 332.150788 
L 50.814911 360.260153 
L 49.071882 317.248765 
L 47.329724 323.666275 
L 45.588437 338.347226 
L 43.848019 324.93155 
L 42.108471 329.473316 
L 40.369791 325.093704 
L 38.631979 315.448406 
L 36.895034 313.032674 
L 35.158955 354.307866 
L 33.423743 316.608723 
L 31.689396 311.317164 
L 29.955913 322.957956 
L 28.223294 354.924325 
L 26.491538 366.334439 
L 24.760646 302.604629 
L 23.030615 322.842143 
L 21.301445 327.757615 
L 19.573136 344.499545 
L 17.845687 344.344884 
L 16.119098 334.348776 
L 14.393368 312.710663 
L 12.668495 318.742584 
L 10.94448 323.593743 
L 9.221322 333.98334 
L 7.49902 324.669319 
L 5.777574 304.474633 
L 4.056983 335.895917 
L 2.337246 327.161802 
L 0.618363 356.593565 
L -1 312.516659 
L -1 312.516659 
" clip-path="url(#pd52331610e)" style="fill: none; stroke: #228b22; stroke-width: 2; stroke-linecap: square"/>
   </g>
   <g id="line2d_26">
    <path d="M 649 316.568907 
L 646.952056 320.722359 
L 644.89834 314.48339 
L 642.845739 326.411184 
L 640.79425 335.974721 
L 638.743874 360.497047 
L 636.694609 318.80816 
L 634.646455 348.379337 
L 632.59941 324.456408 
L 630.553474 332.856578 
L 628.508645 322.673164 
L 626.464923 317.057723 
L 624.422307 364.394694 
L 622.380797 336.059215 
L 620.34039 348.41695 
L 618.301086 345.721074 
L 616.262885 349.344804 
L 614.225785 315.419446 
L 612.189786 303.500528 
L 610.154886 319.782779 
L 608.121086 329.184205 
L 606.088383 325.235747 
L 604.056777 343.070166 
L 602.026267 369.387041 
L 599.996852 326.664814 
L 597.968532 357.740251 
L 595.941305 348.879155 
L 593.91517 311.365726 
L 591.890128 333.369132 
L 589.866176 330.257354 
L 587.843314 328.891425 
L 585.821541 320.456667 
L 583.800856 370.133783 
L 581.781258 342.95029 
L 579.762747 321.136467 
L 577.745321 324.569611 
L 575.72898 350.459005 
L 573.713723 338.737984 
L 571.699548 332.117863 
L 569.686456 347.050875 
L 567.674445 338.062489 
L 565.663514 345.94909 
L 563.653662 337.681936 
L 561.644889 351.339248 
L 559.637194 314.142193 
L 557.630575 340.596986 
L 555.625033 324.300347 
L 553.620565 342.503301 
L 551.617172 332.852523 
L 549.614852 356.042847 
L 547.613604 354.869944 
L 545.613428 340.148669 
L 543.614323 339.101028 
L 541.616288 330.363707 
L 539.619322 309.503238 
L 537.623424 322.92051 
L 535.628593 312.494129 
L 533.634829 318.97456 
L 531.64213 331.21728 
L 529.650496 350.665292 
L 527.659926 361.557967 
L 525.670419 356.486295 
L 523.681974 317.256365 
L 521.694591 333.204927 
L 519.708268 317.705524 
L 517.723005 330.716968 
L 515.738801 324.707666 
L 513.755654 325.062248 
L 511.773565 320.918053 
L 507.812554 341.651285 
L 505.833631 338.400545 
L 503.855762 365.41615 
L 501.878946 335.566734 
L 499.903181 328.986132 
L 497.928468 331.231226 
L 495.954805 318.693337 
L 493.982192 357.868542 
L 492.010628 320.716729 
L 490.040111 338.720482 
L 488.070641 326.866861 
L 486.102218 348.629557 
L 484.13484 332.707834 
L 482.168507 319.887728 
L 480.203217 333.967643 
L 478.23897 359.176729 
L 476.275765 337.126083 
L 474.313601 328.548648 
L 472.352478 321.222458 
L 470.392394 324.643441 
L 468.433349 314.987359 
L 466.475342 343.51947 
L 464.518372 344.097974 
L 462.562438 336.378461 
L 460.60754 301.832344 
L 458.653676 332.28775 
L 456.700846 325.375825 
L 454.749049 334.384794 
L 452.798285 344.043014 
L 450.848551 341.520891 
L 448.899848 349.170776 
L 446.952175 364.94855 
L 445.005531 307.995893 
L 443.059914 345.558559 
L 441.115325 345.007637 
L 439.171763 305.658466 
L 437.229226 328.0803 
L 435.287713 348.789586 
L 433.347225 312.951628 
L 431.40776 327.449913 
L 429.469318 329.251987 
L 427.531897 340.30739 
L 425.595496 326.521617 
L 423.660116 334.855559 
L 421.725755 326.017616 
L 419.792412 357.058948 
L 417.860087 340.681616 
L 415.928779 320.452305 
L 413.998486 325.329742 
L 412.069209 310.941183 
L 410.140946 321.870425 
L 408.213696 327.921391 
L 406.287459 307.373173 
L 404.362235 289.52124 
L 402.438021 292.864349 
L 400.514818 285.728083 
L 398.592624 268.542539 
L 396.671439 261.378664 
L 394.751262 253.087799 
L 392.832092 246.120577 
L 390.913928 235.054595 
L 360.359537 90.964316 
L 356.558179 73.985374 
L 354.658987 66.129077 
L 352.760786 59.012632 
L 350.863575 53.065821 
L 348.967353 48.80963 
L 347.07212 46.724936 
L 345.177874 47.1138 
L 343.284615 49.908774 
L 341.392342 54.730982 
L 339.501054 61.068449 
L 337.610751 68.442769 
L 333.833096 84.868718 
L 328.173977 111.215636 
L 309.373828 200.668736 
L 307.499174 210.510914 
L 305.625491 218.290022 
L 303.752778 228.383183 
L 301.881036 236.12914 
L 300.010264 246.206196 
L 298.140459 255.073504 
L 294.403754 276.280006 
L 292.53685 277.765408 
L 290.670913 288.483769 
L 288.80594 315.600502 
L 286.941932 310.296868 
L 285.078886 334.386103 
L 283.216804 355.677102 
L 281.355683 319.307065 
L 279.495523 309.416165 
L 277.636323 311.547481 
L 275.778083 328.700993 
L 273.920802 314.536221 
L 272.064479 321.196076 
L 270.209114 332.116362 
L 268.354705 365.673093 
L 266.501251 340.64251 
L 264.648754 333.891687 
L 262.79721 315.949581 
L 260.94662 358.343524 
L 259.096983 343.945998 
L 257.248298 353.319895 
L 255.400565 334.509787 
L 253.553782 323.29671 
L 251.70795 333.258518 
L 249.863066 301.978657 
L 248.019131 350.480081 
L 244.334104 316.630079 
L 242.493011 361.401373 
L 240.652863 315.436543 
L 238.81366 316.302989 
L 236.975401 332.280433 
L 235.138085 337.72546 
L 233.301712 357.093447 
L 231.466281 333.541865 
L 229.631792 367.957116 
L 227.798242 319.469955 
L 225.965633 363.463233 
L 224.133963 323.166708 
L 222.303231 305.937075 
L 220.473437 327.641425 
L 218.644579 312.336227 
L 216.816658 344.58427 
L 214.989672 327.418477 
L 213.163621 346.625315 
L 211.338505 310.950234 
L 209.514321 333.576124 
L 207.69107 321.787542 
L 205.868751 318.732854 
L 204.047363 333.539152 
L 202.226906 313.02584 
L 200.407378 346.75416 
L 198.588779 343.009607 
L 196.771109 316.543326 
L 194.954366 354.94382 
L 193.138551 337.550742 
L 191.323661 339.605263 
L 189.509697 364.969433 
L 187.696658 335.190287 
L 185.884542 369.979737 
L 184.073351 312.594832 
L 182.263081 319.955515 
L 180.453734 334.387126 
L 178.645308 311.143911 
L 176.837803 337.503076 
L 175.031217 333.853215 
L 173.225551 342.891798 
L 171.420803 333.649415 
L 169.616973 313.708641 
L 167.81406 328.705047 
L 166.012063 331.563034 
L 164.210982 350.642499 
L 162.410815 328.258842 
L 160.611563 325.781278 
L 158.813225 342.272547 
L 157.015799 323.36381 
L 155.219286 320.874611 
L 153.423684 324.786489 
L 151.628993 350.506603 
L 149.835212 328.145638 
L 148.04234 314.940437 
L 146.250377 361.523566 
L 144.459322 338.861814 
L 142.669175 337.374513 
L 140.879934 317.077639 
L 139.091599 367.114256 
L 137.304169 314.244102 
L 135.517644 362.306888 
L 133.732022 309.656077 
L 131.947304 329.048059 
L 130.163489 340.875652 
L 128.380575 323.381314 
L 126.598562 335.384305 
L 124.81745 344.008902 
L 123.037238 356.337019 
L 121.257924 326.530812 
L 119.47951 329.682523 
L 117.701992 307.415116 
L 115.925372 309.069625 
L 114.149649 332.992918 
L 112.374821 350.18608 
L 110.600888 314.327621 
L 108.827849 339.989405 
L 107.055704 310.182364 
L 105.284452 334.576628 
L 103.514092 325.601332 
L 101.744624 326.11674 
L 99.976047 339.805492 
L 98.20836 343.099955 
L 96.441563 306.319325 
L 94.675655 324.825246 
L 92.910635 326.641081 
L 91.146503 339.813212 
L 89.383258 320.540298 
L 87.620899 333.135508 
L 85.859425 365.856746 
L 84.098837 316.523869 
L 82.339132 363.280052 
L 80.580312 336.45869 
L 78.822374 314.637332 
L 77.065319 320.57607 
L 75.309145 308.165195 
L 73.553852 337.773472 
L 71.799439 329.802285 
L 70.045907 339.102752 
L 68.293253 322.515183 
L 66.541477 327.255225 
L 64.790579 316.859602 
L 63.040558 362.29201 
L 61.291413 345.110147 
L 59.543144 319.60459 
L 57.79575 308.354836 
L 56.04923 311.680146 
L 54.303584 334.453813 
L 52.558811 331.864409 
L 50.814911 359.743683 
L 49.071882 317.037871 
L 47.329724 323.390268 
L 45.588437 337.829465 
L 43.848019 324.389704 
L 42.108471 328.955412 
L 40.369791 324.905636 
L 38.631979 315.111134 
L 36.895034 312.714006 
L 35.158955 354.154158 
L 33.423743 316.178828 
L 31.689396 311.012236 
L 29.955913 322.606174 
L 28.223294 354.892622 
L 26.491538 366.055425 
L 24.760646 302.220401 
L 23.030615 322.51746 
L 21.301445 327.442638 
L 19.573136 344.198262 
L 17.845687 344.06018 
L 16.119098 333.969067 
L 14.393368 312.325886 
L 12.668495 318.325207 
L 10.94448 323.373324 
L 9.221322 333.564101 
L 7.49902 324.574226 
L 5.777574 304.190493 
L 4.056983 335.362541 
L 2.337246 326.460777 
L 0.618363 355.943553 
L -1 312.096305 
L -1 312.096305 
" clip-path="url(#pd52331610e)" style="fill: none; stroke: #4b0082; stroke-width: 2; stroke-linecap: square"/>
   </g>
   <g id="line2d_27">
    <path d="M 649 367.506134 
L 646.952056 368.341749 
L 644.89834 366.99684 
L 642.845739 369.370538 
L 638.743874 371.543728 
L 636.694609 368.028094 
L 634.646455 371.201007 
L 632.59941 369.0591 
L 630.553474 370.124464 
L 628.508645 368.748236 
L 626.464923 367.612698 
L 624.422307 371.60872 
L 622.380797 370.45753 
L 620.34039 371.211278 
L 618.301086 371.070824 
L 616.262885 371.206059 
L 612.189786 363.332587 
L 610.154886 368.196039 
L 608.121086 369.772037 
L 606.088383 369.161103 
L 604.056777 370.930024 
L 602.026267 371.685297 
L 599.996852 369.366381 
L 597.968532 371.50116 
L 595.941305 371.212317 
L 593.91517 366.048786 
L 591.890128 370.182643 
L 589.866176 369.854827 
L 587.843314 369.665256 
L 585.821541 368.350885 
L 583.800856 371.694146 
L 581.781258 370.936539 
L 579.762747 368.487046 
L 577.745321 369.108025 
L 575.72898 371.262978 
L 571.699548 370.096064 
L 569.686456 371.120463 
L 567.674445 370.632978 
L 565.663514 371.068134 
L 563.653662 370.543373 
L 561.644889 371.280666 
L 559.637194 366.953885 
L 557.630575 370.743099 
L 555.625033 369.091729 
L 553.620565 370.910398 
L 551.617172 370.151488 
L 549.614852 371.463678 
L 547.613604 371.436289 
L 545.613428 370.787276 
L 543.614323 370.628323 
L 541.616288 369.837816 
L 539.619322 365.58507 
L 537.623424 368.726423 
L 535.628593 366.367583 
L 533.634829 367.965744 
L 531.64213 369.979796 
L 529.650496 371.273713 
L 527.659926 371.559316 
L 525.670419 371.471999 
L 523.681974 367.703325 
L 521.694591 370.143441 
L 519.708268 367.798005 
L 517.723005 369.932774 
L 515.738801 369.10253 
L 513.755654 369.15986 
L 511.773565 368.438676 
L 509.792532 369.966313 
L 507.812554 370.831713 
L 505.833631 370.62345 
L 503.855762 371.629334 
L 501.878946 370.380161 
L 499.903181 369.701095 
L 497.928468 369.946775 
L 495.954805 367.951538 
L 493.982192 371.491739 
L 492.010628 368.373412 
L 490.040111 370.665932 
L 488.070641 369.407009 
L 486.102218 371.190294 
L 484.13484 370.132583 
L 482.168507 368.274425 
L 480.203217 370.233439 
L 478.23897 371.509696 
L 476.275765 370.523865 
L 474.313601 369.71237 
L 472.352478 368.553304 
L 470.392394 369.167077 
L 468.433349 367.073839 
L 466.475342 370.971193 
L 464.518372 370.944527 
L 462.562438 370.48018 
L 460.60754 362.624087 
L 458.653676 370.131863 
L 456.700846 369.131485 
L 454.749049 370.28213 
L 452.798285 370.974744 
L 450.848551 370.785708 
L 446.952175 371.605904 
L 445.005531 364.900483 
L 443.059914 371.110093 
L 441.115325 371.00602 
L 439.171763 364.003301 
L 437.229226 369.574556 
L 435.287713 371.175691 
L 433.347225 366.559765 
L 431.40776 369.508542 
L 429.469318 369.524619 
L 427.531897 370.700115 
L 425.595496 369.066209 
L 423.660116 370.668964 
L 421.725755 369.088489 
L 419.792412 371.617131 
L 417.860087 370.621949 
L 415.928779 367.335973 
L 413.998486 369.144008 
L 412.069209 366.213714 
L 410.140946 368.996368 
L 408.213696 366.970521 
L 404.362235 358.019596 
L 402.438021 357.212522 
L 400.514818 351.063633 
L 398.592624 340.691404 
L 396.671439 333.846743 
L 394.751262 324.688735 
L 392.832092 318.905973 
L 390.913928 308.572838 
L 385.165468 281.391601 
L 381.338179 263.722923 
L 377.514896 245.275158 
L 375.604755 236.724256 
L 371.787471 218.433223 
L 360.359537 164.924923 
L 356.558179 147.949393 
L 354.658987 140.093564 
L 352.760786 132.977462 
L 350.863575 127.030822 
L 348.967353 122.774707 
L 347.07212 120.689922 
L 345.177874 121.078739 
L 343.284615 123.873673 
L 341.392342 128.695696 
L 339.501054 135.032745 
L 337.610751 142.406458 
L 333.833096 158.830062 
L 328.173977 185.166 
L 309.373828 274.425274 
L 307.499174 284.420697 
L 305.625491 292.149088 
L 303.752778 301.67527 
L 301.881036 309.520124 
L 298.140459 327.58628 
L 296.271623 337.994348 
L 294.403754 345.450396 
L 292.53685 346.98603 
L 290.670913 355.251452 
L 288.80594 366.069919 
L 286.941932 365.595081 
L 285.078886 370.488924 
L 283.216804 371.616271 
L 281.355683 366.338345 
L 279.495523 365.492103 
L 277.636323 367.530491 
L 275.778083 369.760056 
L 273.920802 366.561998 
L 272.064479 368.858739 
L 270.209114 369.756393 
L 268.354705 371.617349 
L 264.648754 370.250374 
L 262.79721 367.162318 
L 260.94662 371.537427 
L 259.096983 370.980612 
L 257.248298 371.331813 
L 255.400565 370.338418 
L 253.553782 368.941793 
L 251.70795 370.131107 
L 249.863066 362.548191 
L 248.019131 371.266339 
L 246.176144 370.22901 
L 244.334104 367.564235 
L 242.493011 371.565464 
L 240.652863 367.227402 
L 238.81366 367.474125 
L 236.975401 370.041443 
L 235.138085 370.529561 
L 233.301712 371.450131 
L 231.466281 370.239117 
L 229.631792 371.657602 
L 227.798242 368.145242 
L 225.965633 371.595951 
L 224.133963 368.789824 
L 222.303231 364.331149 
L 220.473437 369.564102 
L 218.644579 366.376931 
L 216.816658 371.038274 
L 214.989672 369.467844 
L 213.163621 371.096575 
L 211.338505 365.951094 
L 209.514321 370.19043 
L 207.69107 368.647167 
L 205.868751 367.942881 
L 204.047363 370.253536 
L 202.226906 366.534011 
L 200.407378 371.150322 
L 198.588779 370.930864 
L 196.771109 367.461204 
L 194.954366 371.438227 
L 193.138551 370.548575 
L 191.323661 370.675325 
L 189.509697 371.635644 
L 187.696658 370.407526 
L 185.884542 371.686319 
L 184.073351 366.461255 
L 182.263081 368.279044 
L 180.453734 370.289142 
L 178.645308 366.011584 
L 176.837803 370.574282 
L 175.031217 370.23346 
L 173.225551 370.929444 
L 171.420803 370.240056 
L 169.616973 366.731115 
L 167.81406 369.701201 
L 166.012063 370.013412 
L 164.210982 371.272725 
L 162.410815 369.582753 
L 160.611563 369.280901 
L 158.813225 370.933215 
L 157.015799 368.802461 
L 155.219286 368.343183 
L 153.423684 369.084368 
L 151.628993 371.306514 
L 149.835212 369.600027 
L 148.04234 367.111384 
L 146.250377 371.58557 
L 144.459322 370.70379 
L 142.669175 370.591444 
L 140.879934 367.696103 
L 139.091599 371.664672 
L 137.304169 366.902882 
L 135.517644 371.594337 
L 133.732022 365.517042 
L 131.947304 369.749891 
L 130.163489 370.772728 
L 128.380575 368.840726 
L 126.598562 370.406985 
L 124.81745 370.999325 
L 123.037238 371.445883 
L 121.257924 369.366567 
L 119.47951 369.802867 
L 117.701992 364.784059 
L 115.925372 365.3838 
L 114.149649 370.174685 
L 112.374821 371.252555 
L 110.600888 366.91102 
L 108.827849 370.759057 
L 107.055704 365.68595 
L 105.284452 370.335724 
L 103.514092 369.216938 
L 101.744624 369.275554 
L 99.976047 370.719471 
L 98.20836 370.924763 
L 96.441563 364.427543 
L 94.675655 369.107769 
L 92.910635 369.387373 
L 91.146503 370.715938 
L 89.383258 368.343388 
L 87.620899 370.145368 
L 85.859425 371.644566 
L 84.098837 367.479812 
L 82.339132 371.590377 
L 80.580312 370.5162 
L 78.822374 366.96177 
L 77.065319 368.429236 
L 75.309145 365.121248 
L 73.553852 370.535603 
L 71.799439 369.791873 
L 70.045907 370.681907 
L 68.293253 368.755937 
L 66.541477 369.469846 
L 64.790579 367.518891 
L 63.040558 371.573966 
L 61.291413 371.057647 
L 57.79575 365.102055 
L 56.04923 366.17833 
L 54.303584 370.30761 
L 52.558811 370.033512 
L 50.814911 371.538004 
L 49.071882 367.574211 
L 47.329724 368.867145 
L 45.588437 370.599605 
L 43.848019 369.075761 
L 42.108471 369.720955 
L 40.369791 369.102129 
L 38.631979 367.132623 
L 36.895034 366.479832 
L 35.158955 371.389982 
L 33.423743 367.421078 
L 31.689396 365.971591 
L 28.223294 371.407952 
L 26.491538 371.642837 
L 24.760646 362.758112 
L 23.030615 368.723368 
L 21.301445 369.495747 
L 19.573136 370.99416 
L 17.845687 370.985894 
L 16.119098 370.257302 
L 14.393368 366.387143 
L 12.668495 367.912283 
L 10.94448 368.854844 
L 9.221322 370.221928 
L 7.49902 369.034279 
L 5.777574 363.541788 
L 4.056983 370.398961 
L 2.337246 369.411889 
L 0.618363 371.453124 
L -1 365.835937 
L -1 365.835937 
" clip-path="url(#pd52331610e)" style="fill: none; stroke: #ff8c00; stroke-width: 2; stroke-linecap: square"/>
   </g>
   <g id="patch_3">
    <path d="M 55.642813 387.957188 
L 55.642813 30.475781 
" style="fill: none; stroke: #000000; stroke-width: 0.8; stroke-linejoin: miter; stroke-linecap: square"/>
   </g>
   <g id="patch_4">
    <path d="M 637.2 387.957188 
L 637.2 30.475781 
" style="fill: none; stroke: #000000; stroke-width: 0.8; stroke-linejoin: miter; stroke-linecap: square"/>
   </g>
   <g id="patch_5">
    <path d="M 55.642813 387.957187 
L 637.2 387.957187 
" style="fill: none; stroke: #000000; stroke-width: 0.8; stroke-linejoin: miter; stroke-linecap: square"/>
   </g>
   <g id="patch_6">
    <path d="M 55.642813 30.475781 
L 637.2 30.475781 
" style="fill: none; stroke: #000000; stroke-width: 0.8; stroke-linejoin: miter; stroke-linecap: square"/>
   </g>
   <g id="text_15">
    <!-- PyNLO Spectrum -->
    <g transform="translate(270.683594 24.475781) scale(0.18 -0.18)">
     <defs>
      <path id="DejaVuSans-33" d="M 1259 4147 
L 1259 2394 
L 2053 2394 
Q 2494 2394 2734 2622 
Q 2975 2850 2975 3272 
Q 2975 3691 2734 3919 
Q 2494 4147 2053 4147 
L 1259 4147 
z
M 628 4666 
L 2053 4666 
Q 2838 4666 3239 4311 
Q 3641 3956 3641 3272 
Q 3641 2581 3239 2228 
Q 2838 1875 2053 1875 
L 1259 1875 
L 1259 0 
L 628 0 
L 628 4666 
z
" transform="scale(0.015625)"/>
      <path id="DejaVuSans-31" d="M 628 4666 
L 1478 4666 
L 3547 763 
L 3547 4666 
L 4159 4666 
L 4159 0 
L 3309 0 
L 1241 3903 
L 1241 0 
L 628 0 
L 628 4666 
z
" transform="scale(0.015625)"/>
      <path id="DejaVuSans-2f" d="M 628 4666 
L 1259 4666 
L 1259 531 
L 3531 531 
L 3531 0 
L 628 0 
L 628 4666 
z
" transform="scale(0.015625)"/>
      <path id="DejaVuSans-32" d="M 2522 4238 
Q 1834 4238 1429 3725 
Q 1025 3213 1025 2328 
Q 1025 1447 1429 934 
Q 1834 422 2522 422 
Q 3209 422 3611 934 
Q 4013 1447 4013 2328 
Q 4013 3213 3611 3725 
Q 3209 4238 2522 4238 
z
M 2522 4750 
Q 3503 4750 4090 4092 
Q 4678 3434 4678 2328 
Q 4678 1225 4090 567 
Q 3503 -91 2522 -91 
Q 1538 -91 948 565 
Q 359 1222 359 2328 
Q 359 3434 948 4092 
Q 1538 4750 2522 4750 
z
" transform="scale(0.015625)"/>
      <path id="DejaVuSans-36" d="M 3425 4513 
L 3425 3897 
Q 3066 4069 2747 4153 
Q 2428 4238 2131 4238 
Q 1616 4238 1336 4038 
Q 1056 3838 1056 3469 
Q 1056 3159 1242 3001 
Q 1428 2844 1947 2747 
L 2328 2669 
Q 3034 2534 3370 2195 
Q 3706 1856 3706 1288 
Q 3706 609 3251 259 
Q 2797 -91 1919 -91 
Q 1588 -91 1214 -16 
Q 841 59 441 206 
L 441 856 
Q 825 641 1194 531 
Q 1563 422 1919 422 
Q 2459 422 2753 634 
Q 3047 847 3047 1241 
Q 3047 1584 2836 1778 
Q 2625 1972 2144 2069 
L 1759 2144 
Q 1053 2284 737 2584 
Q 422 2884 422 3419 
Q 422 4038 858 4394 
Q 1294 4750 2059 4750 
Q 2388 4750 2728 4690 
Q 3069 4631 3425 4513 
z
" transform="scale(0.015625)"/>
      <path id="DejaVuSans-53" d="M 1159 525 
L 1159 -1331 
L 581 -1331 
L 581 3500 
L 1159 3500 
L 1159 2969 
Q 1341 3281 1617 3432 
Q 1894 3584 2278 3584 
Q 2916 3584 3314 3078 
Q 3713 2572 3713 1747 
Q 3713 922 3314 415 
Q 2916 -91 2278 -91 
Q 1894 -91 1617 61 
Q 1341 213 1159 525 
z
M 3116 1747 
Q 3116 2381 2855 2742 
Q 2594 3103 2138 3103 
Q 1681 3103 1420 2742 
Q 1159 2381 1159 1747 
Q 1159 1113 1420 752 
Q 1681 391 2138 391 
Q 2594 391 2855 752 
Q 3116 1113 3116 1747 
z
" transform="scale(0.015625)"/>
      <path id="DejaVuSans-46" d="M 3122 3366 
L 3122 2828 
Q 2878 2963 2633 3030 
Q 2388 3097 2138 3097 
Q 1578 3097 1268 2742 
Q 959 2388 959 1747 
Q 959 1106 1268 751 
Q 1578 397 2138 397 
Q 2388 397 2633 464 
Q 2878 531 3122 666 
L 3122 134 
Q 2881 22 2623 -34 
Q 2366 -91 2075 -91 
Q 1284 -91 818 406 
Q 353 903 353 1747 
Q 353 2603 823 3093 
Q 1294 3584 2113 3584 
Q 2378 3584 2631 3529 
Q 2884 3475 3122 3366 
z
" transform="scale(0.015625)"/>
      <path id="DejaVuSans-55" d="M 2631 2963 
Q 2534 3019 2420 3045 
Q 2306 3072 2169 3072 
Q 1681 3072 1420 2755 
Q 1159 2438 1159 1844 
L 1159 0 
L 581 0 
L 581 3500 
L 1159 3500 
L 1159 2956 
Q 1341 3275 1631 3429 
Q 1922 3584 2338 3584 
Q 2397 3584 2469 3576 
Q 2541 3569 2628 3553 
L 2631 2963 
z
" transform="scale(0.015625)"/>
      <path id="DejaVuSans-58" d="M 544 1381 
L 544 3500 
L 1119 3500 
L 1119 1403 
Q 1119 906 1312 657 
Q 1506 409 1894 409 
Q 2359 409 2629 706 
Q 2900 1003 2900 1516 
L 2900 3500 
L 3475 3500 
L 3475 0 
L 2900 0 
L 2900 538 
Q 2691 219 2414 64 
Q 2138 -91 1772 -91 
Q 1169 -91 856 284 
Q 544 659 544 1381 
z
M 1991 3584 
L 1991 3584 
z
" transform="scale(0.015625)"/>
     </defs>
     <use xlink:href="#DejaVuSans-33"/>
     <use xlink:href="#DejaVuSans-5c" transform="translate(60.296875 0)"/>
     <use xlink:href="#DejaVuSans-31" transform="translate(119.484375 0)"/>
     <use xlink:href="#DejaVuSans-2f" transform="translate(194.296875 0)"/>
     <use xlink:href="#DejaVuSans-32" transform="translate(246.453125 0)"/>
     <use xlink:href="#DejaVuSans-3" transform="translate(325.171875 0)"/>
     <use xlink:href="#DejaVuSans-36" transform="translate(356.953125 0)"/>
     <use xlink:href="#DejaVuSans-53" transform="translate(420.4375 0)"/>
     <use xlink:href="#DejaVuSans-48" transform="translate(483.921875 0)"/>
     <use xlink:href="#DejaVuSans-46" transform="translate(545.453125 0)"/>
     <use xlink:href="#DejaVuSans-57" transform="translate(600.4375 0)"/>
     <use xlink:href="#DejaVuSans-55" transform="translate(639.640625 0)"/>
     <use xlink:href="#DejaVuSans-58" transform="translate(680.75 0)"/>
     <use xlink:href="#DejaVuSans-50" transform="translate(744.125 0)"/>
    </g>
   </g>
   <g id="legend_1">
    <g id="patch_7">
     <path d="M 519.691875 94.078594 
L 628.8 94.078594 
Q 631.2 94.078594 631.2 91.678594 
L 631.2 38.875781 
Q 631.2 36.475781 628.8 36.475781 
L 519.691875 36.475781 
Q 517.291875 36.475781 517.291875 38.875781 
L 517.291875 91.678594 
Q 517.291875 94.078594 519.691875 94.078594 
z
" style="fill: #ffffff; opacity: 0.8; stroke: #cccccc; stroke-linejoin: miter"/>
    </g>
    <g id="line2d_28">
     <path d="M 522.091875 46.193906 
L 534.091875 46.193906 
L 546.091875 46.193906 
" style="fill: none; stroke: #228b22; stroke-width: 2; stroke-linecap: square"/>
    </g>
    <g id="text_16">
     <!-- Input -->
     <g transform="translate(555.691875 50.393906) scale(0.12 -0.12)">
      <use xlink:href="#DejaVuSans-2c"/>
      <use xlink:href="#DejaVuSans-51" transform="translate(29.5 0)"/>
      <use xlink:href="#DejaVuSans-53" transform="translate(92.875 0)"/>
      <use xlink:href="#DejaVuSans-58" transform="translate(156.359375 0)"/>
      <use xlink:href="#DejaVuSans-57" transform="translate(219.734375 0)"/>
     </g>
    </g>
    <g id="line2d_29">
     <path d="M 522.091875 64.194844 
L 534.091875 64.194844 
L 546.091875 64.194844 
" style="fill: none; stroke: #4b0082; stroke-width: 2; stroke-linecap: square"/>
    </g>
    <g id="text_17">
     <!-- Output -->
     <g transform="translate(555.691875 68.394844) scale(0.12 -0.12)">
      <use xlink:href="#DejaVuSans-32"/>
      <use xlink:href="#DejaVuSans-58" transform="translate(78.71875 0)"/>
      <use xlink:href="#DejaVuSans-57" transform="translate(142.09375 0)"/>
      <use xlink:href="#DejaVuSans-53" transform="translate(181.296875 0)"/>
      <use xlink:href="#DejaVuSans-58" transform="translate(244.78125 0)"/>
      <use xlink:href="#DejaVuSans-57" transform="translate(308.15625 0)"/>
     </g>
    </g>
    <g id="line2d_30">
     <path d="M 522.091875 82.195781 
L 534.091875 82.195781 
L 546.091875 82.195781 
" style="fill: none; stroke: #ff8c00; stroke-width: 2; stroke-linecap: square"/>
    </g>
    <g id="text_18">
     <!-- AUX Output -->
     <g transform="translate(555.691875 86.395781) scale(0.12 -0.12)">
      <defs>
       <path id="DejaVuSans-24" d="M 2188 4044 
L 1331 1722 
L 3047 1722 
L 2188 4044 
z
M 1831 4666 
L 2547 4666 
L 4325 0 
L 3669 0 
L 3244 1197 
L 1141 1197 
L 716 0 
L 50 0 
L 1831 4666 
z
" transform="scale(0.015625)"/>
       <path id="DejaVuSans-38" d="M 556 4666 
L 1191 4666 
L 1191 1831 
Q 1191 1081 1462 751 
Q 1734 422 2344 422 
Q 2950 422 3222 751 
Q 3494 1081 3494 1831 
L 3494 4666 
L 4128 4666 
L 4128 1753 
Q 4128 841 3676 375 
Q 3225 -91 2344 -91 
Q 1459 -91 1007 375 
Q 556 841 556 1753 
L 556 4666 
z
" transform="scale(0.015625)"/>
       <path id="DejaVuSans-3b" d="M 403 4666 
L 1081 4666 
L 2241 2931 
L 3406 4666 
L 4084 4666 
L 2584 2425 
L 4184 0 
L 3506 0 
L 2194 1984 
L 872 0 
L 191 0 
L 1856 2491 
L 403 4666 
z
" transform="scale(0.015625)"/>
      </defs>
      <use xlink:href="#DejaVuSans-24"/>
      <use xlink:href="#DejaVuSans-38" transform="translate(68.40625 0)"/>
      <use xlink:href="#DejaVuSans-3b" transform="translate(141.59375 0)"/>
      <use xlink:href="#DejaVuSans-3" transform="translate(210.09375 0)"/>
      <use xlink:href="#DejaVuSans-32" transform="translate(241.875 0)"/>
      <use xlink:href="#DejaVuSans-58" transform="translate(320.59375 0)"/>
      <use xlink:href="#DejaVuSans-57" transform="translate(383.96875 0)"/>
      <use xlink:href="#DejaVuSans-53" transform="translate(423.171875 0)"/>
      <use xlink:href="#DejaVuSans-58" transform="translate(486.65625 0)"/>
      <use xlink:href="#DejaVuSans-57" transform="translate(550.03125 0)"/>
     </g>
    </g>
   </g>
  </g>
 </g>
 <defs>
  <clipPath id="pd52331610e">
   <rect x="55.642813" y="30.475781" width="581.557187" height="357.481406"/>
  </clipPath>
 </defs>
</svg>
